/* XPM */
static char * 0_empty_green_xpm[] = {
"32 32 44 1",
" 	c None",
".	c #7ABA3C",
"+	c #73B378",
"@	c #83BC82",
"#	c #8DC187",
"$	c #8BC086",
"%	c #FBFCFA",
"&	c #8CC086",
"*	c #91C389",
"=	c #92C489",
"-	c #7EB97F",
";	c #A9CE92",
">	c #7FBA80",
",	c #A1CB8F",
"'	c #89BF85",
")	c #78B84C",
"!	c #88BF85",
"~	c #A2CB90",
"{	c #77B67B",
"]	c #9EC98F",
"^	c #77B84C",
"/	c #9EC98E",
"(	c #78B67C",
"_	c #87BE84",
":	c #86BD84",
"<	c #84BD83",
"[	c #95C58A",
"}	c #7AB77D",
"|	c #79B77D",
"1	c #96C58B",
"2	c #75B47A",
"3	c #74B479",
"4	c #A0CA8F",
"5	c #A3CC90",
"6	c #A5CD91",
"7	c #75B479",
"8	c #94C58A",
"9	c #7BB87E",
"0	c #76B57B",
"a	c #78B84D",
"b	c #7CB87E",
"c	c #90C288",
"d	c #72B275",
"e	c #80BA80",
"                                ",
"  ............................  ",
" .............................. ",
" .............................. ",
" .............................. ",
" .............................. ",
" ............+@##@+............ ",
" ...........$%%%%%%&........... ",
" ..........*%%%%%%%%=.......... ",
" .........-%%%%;;%%%%>......... ",
" .........,%%%'))!%%%~......... ",
" ........{%%%]^^^^/%%%(........ ",
" ........_%%%:^^^^<%%%!........ ",
" ........[%%%}^^^^|%%%1........ ",
" ........]%%%2^^^^3%%%4........ ",
" ........5%%%+^^^^+%%%6........ ",
" ........~%%%+^^^^+%%%5........ ",
" ........]%%%2^^^^7%%%4........ ",
" ........8%%%9^^^^}%%%1........ ",
" ........_%%%_^^^^_%%%_........ ",
" ........0%%%4^^^^]%%%{........ ",
" .........]%%%#aa&%%%,......... ",
" .........b%%%%%%%%%%-......... ",
" ..........c%%%%%%%%c.......... ",
" ..........._%%%%%%!........... ",
" ............de''ed............ ",
" .............................. ",
" .............................. ",
" .............................. ",
" .............................. ",
"  ............................  ",
"                                "};
