/* XPM */
static char *_04d2a85325c440cb6b9324fa7189f75z1XxtkVVgtNe8XjP[] = {
/* columns rows colors chars-per-pixel */
"32 32 26 1 ",
"  c None",
". c #3B88C3",
"X c #4890C7",
"o c #5095C9",
"O c #5598CB",
"+ c #62A0CF",
"@ c #67A3D0",
"# c #68A3D1",
"$ c #6EA7D2",
"% c #70A8D3",
"& c #73AAD4",
"* c #74ABD4",
"= c #79ADD6",
"- c #7BAFD7",
"; c #7FB1D8",
": c #81B2D8",
"> c #87B6DA",
", c #98C0DF",
"< c #ADCEE6",
"1 c #B4D1E8",
"2 c #B5D2E8",
"3 c #B7D3E9",
"4 c #EFF5FA",
"5 c #FDFEFE",
"6 c #FEFFFF",
"7 c #FFFFFF",
/* pixels */
"                                ",
"  ............................  ",
" .............................. ",
" .............................. ",
" .............................. ",
" .............................. ",
" ...........+;;;;@............. ",
" ..........=777777:............ ",
" ..........<7777773............ ",
" ..........*7777773............ ",
" ...........O$,7773............ ",
" .............&7773............ ",
" .............&7773............ ",
" .............&7773............ ",
" .............&7773............ ",
" .............&7773............ ",
" .............&7773............ ",
" .............&7773............ ",
" .............&7773............ ",
" .............&7773............ ",
" .............&7773............ ",
" .............&7773............ ",
" .............&7773............ ",
" .............%7771............ ",
" .............X477-............ ",
" ..............o>#............. ",
" .............................. ",
" .............................. ",
" .............................. ",
" .............................. ",
"  ............................  ",
"                                "
};
