/* XPM */
static char * c_collect_red_xpm[] = {
"32 32 44 1",
" 	c None",
".	c #5B1313",
"+	c #933943",
"@	c #953F46",
"#	c #964047",
"$	c #F37C85",
"%	c #FEFEFF",
"&	c #F58086",
"*	c #E76478",
"=	c #F98589",
"-	c #E66077",
";	c #F5F9FC",
">	c #F8FBFD",
",	c #EB6E7D",
"'	c #F92735",
")	c #E8677A",
"!	c #DCEAF4",
"~	c #ED717F",
"{	c #E35772",
"]	c #E76479",
"^	c #F33D50",
"/	c #F2F7FB",
"(	c #974348",
"_	c #DE7A8D",
":	c #953E46",
"<	c #953D46",
"[	c #933743",
"}	c #974248",
"|	c #E9F2F8",
"1	c #EC6F7E",
"2	c #E35973",
"3	c #E04F6F",
"4	c #FAFCFE",
"5	c #E86E7C",
"6	c #913340",
"7	c #BC384C",
"8	c #D4626F",
"9	c #EC5167",
"0	c #923441",
"a	c #E9576E",
"b	c #9F3245",
"c	c #F17883",
"d	c #933742",
"e	c #943D45",
"                                ",
"  ............................  ",
" .............................. ",
" .............................. ",
" .............................. ",
" .............................. ",
" ..............+@#@+........... ",
" ............$%%%%%%%&......... ",
" ..........*%%%%%%%%%%=........ ",
" .........-%%%%%%%%%%%%........ ",
" .........;%%%>,'..)!%~........ ",
" ........~%%%;{................ ",
" ........;%%%]................. ",
" .......^%%%/.................. ",
" .......+%%%(.................. ",
" ......._%%%:.................. ",
" ......._%%%<.................. ",
" .......[%%%}.................. ",
" .......^%%%|.................. ",
" ......../%%%]................. ",
" ........1%%%;2......2......... ",
" ........3/%%%456768/%|........ ",
" .........9%%%%%%%%%%%%0....... ",
" ..........a>%%%%%%%%%>b....... ",
" ............c%%%%%%%!2........ ",
" ..............d<@e[........... ",
" .............................. ",
" .............................. ",
" .............................. ",
" .............................. ",
"  ............................  ",
"                                "};
