/* XPM */
static char * e_end_yellow_xpm[] = {
"32 32 27 1",
" 	c None",
".	c #E9F918",
"+	c #E9F919",
"@	c #E9F91A",
"#	c #101010",
"$	c #0F0F10",
"%	c #E7F84B",
"&	c #E8F84D",
"*	c #0F0F0F",
"=	c #D4E763",
"-	c #D3E47C",
";	c #DEF338",
">	c #E2F488",
",	c #EBF27D",
"'	c #E2EA72",
")	c #E6EC66",
"!	c #F2F684",
"~	c #F1F683",
"{	c #F6FA87",
"]	c #E5ED76",
"^	c #E6EE77",
"/	c #E3EB72",
"(	c #E8F07A",
"_	c #F2F784",
":	c #E7EE79",
"<	c #E4EC75",
"[	c #E2EA71",
"                                ",
"  ............................  ",
" .............................. ",
" .............................. ",
" .............................. ",
" .............................. ",
" ...........+++++++++.......... ",
" ..........@########$+......... ",
" ..........%#########@......... ",
" ..........&########*+......... ",
" ..........&###+++++........... ",
" ..........&###................ ",
" ..........&###................ ",
" ..........&###................ ",
" ..........&###=--;>,.......... ",
" ..........&#########'......... ",
" ..........&#########)......... ",
" ..........&###!~~{,].......... ",
" ..........&###................ ",
" ..........&###................ ",
" ..........&###................ ",
" ..........&###^]]]]/.......... ",
" ..........&#########(......... ",
" ..........%#########_......... ",
" ..........@#########:......... ",
" ...........+<<<<<<<[.......... ",
" .............................. ",
" .............................. ",
" .............................. ",
" .............................. ",
"  ............................  ",
"                                "};
