/* XPM */
static char * p_start_black_xpm[] = {
"32 32 38 1",
" 	c None",
".	c #010409",
"+	c #3B5B74",
"@	c #415F76",
"#	c #1E405B",
"$	c #6D7A84",
"%	c #FFFFFF",
"&	c #D2E3F1",
"*	c #395A73",
"=	c #010509",
"-	c #50687B",
";	c #01050A",
">	c #3D5D75",
",	c #E4EEF7",
"'	c #2A516F",
")	c #2B526F",
"!	c #E0ECF5",
"~	c #DAE9F4",
"{	c #030F1A",
"]	c #2E5470",
"^	c #12293A",
"/	c #DDEBF5",
"(	c #1B2E3D",
"_	c #E6F0F7",
":	c #1A2D3D",
"<	c #EAF2F9",
"[	c #426076",
"}	c #436077",
"|	c #586C7D",
"1	c #F6FAFC",
"2	c #C7DDEE",
"3	c #335772",
"4	c #3F5E75",
"5	c #ECF3F9",
"6	c #5E717F",
"7	c #757E86",
"8	c #5B6E7E",
"9	c #476378",
"                                ",
"  ............................  ",
" .............................. ",
" .............................. ",
" .............................. ",
" .............................. ",
" ..........+@@@@@+#............ ",
" .........$%%%%%%%%&*.......... ",
" ........=%%%%%%%%%%%-......... ",
" ........;%%%%%%%%%%%%>........ ",
" ........;%%%,'')@!%%%~........ ",
" ........;%%%!{{{{]%%%%^....... ",
" ........;%%%!{{{{{/%%%(....... ",
" ........;%%%!{{{{{_%%%:....... ",
" ........;%%%!{{{{+%%%%#....... ",
" ........;%%%<[[}|1%%%2........ ",
" ........;%%%%%%%%%%%13........ ",
" ........;%%%%%%%%%%14......... ",
" ........;%%%%%%%%56'.......... ",
" ........;%%%!''';............. ",
" ........;%%%!................. ",
" ........;%%%!................. ",
" ........;%%%/................. ",
" ........;%%%/................. ",
" .........7%%8................. ",
" .........=9@.................. ",
" .............................. ",
" .............................. ",
" .............................. ",
" .............................. ",
"  ............................  ",
"                                "};
